<?xml version="1.0" encoding="utf-8"?>
<!-- Generator: Adobe Illustrator 24.1.0, SVG Export Plug-In . SVG Version: 6.00 Build 0)  -->
<svg version="1.1" id="Layer_1" xmlns="http://www.w3.org/2000/svg" xmlns:xlink="http://www.w3.org/1999/xlink" x="0px" y="0px"
	 viewBox="0 0 197.8 189.5" style="enable-background:new 0 0 197.8 189.5;" xml:space="preserve">
<style type="text/css">
	.st0{fill:#FFFFFF;}
	.st1{fill:#8D1945;}
</style>
<g>
	<g>
		<path class="st0" d="M85.9,110.7H88l2.5-7.1H99l2.5,7.1h3.5l-8.2-22.4h-6.3V89c1.4,0.2,2.7,0.2,2.7,1.5c0,0.2-0.4,1.4-0.6,1.9
			L85.9,110.7z"/>
		<polygon class="st0" points="94.7,92.5 98.5,102.2 91.1,102.2 		"/>
		<path class="st0" d="M43.1,81.4v1.8h16v-1.7c-5,0-5.9-1-5.9-6.5V44.3h0.2l22.7,38.8h6.5V45.4c0-5.3,1-6.5,5.9-6.5v-1.5h-16v1.7
			c4.7,0,5.9,1,5.9,6.5v28.8h-0.2l-21.5-37H43.1v1.7c4.7,0,5.9,1,5.9,6.5v29.5C48.8,80.2,47.8,81.4,43.1,81.4z"/>
		<path class="st0" d="M144.6,109.2H141c-1.7,0-2.1,0-2.1-1.9v-7.4h4c2.1,0,2.7,1.1,2.7,2.9h1v-7.1h-1c-0.2,1.1-0.4,2.7-2.7,2.7h-4
			v-6.7c0-1.5,0.4-1.7,2.1-1.7h2.7c2.3,0,3.6,0.7,3.6,3.5h1l-0.2-5H132v0.7c3.1,0.6,3.2,0.6,3.2,3.8v17.9h13.3l0.2-4.7h-1
			C147.5,108.5,146.5,109.2,144.6,109.2z"/>
		<path class="st0" d="M91.5,81.4v1.8h16v-1.7c-5,0-5.9-1-5.9-6.5V42.5h0.2l14.5,40.4h4.7l14.5-40.4h0.2v32.4c0,5.3-1,6.5-5.9,6.5
			v1.7h18.7v-1.7c-4.7,0-5.9-1-5.9-6.5V45.4c0-5.3,1-6.5,5.9-6.5v-1.7h-15L120,74.8h-0.2l-13.3-37.6h-15v1.7c5,0,5.9,1,5.9,6.5v29.5
			C97.4,80.2,96.4,81.4,91.5,81.4z"/>
		<path class="st0" d="M50.2,109.6c-2.7,0-5.3-1.4-6.5-2.1v2.7c0.7,0.2,3.2,1,5.9,1c4.6,0,8.4-1.7,8.4-6.7c0-7.2-10.9-6.7-10.9-11.8
			c0-2.3,1.5-3.2,3.2-3.2c2.7,0,5.1,1.1,5.9,1.5v-2.5c-1-0.2-3.1-0.6-5.3-0.6c-4.7,0-7.6,2.1-7.6,5.7c0,7.1,10.9,6.5,10.9,12
			C54.2,108.6,52.3,109.6,50.2,109.6z"/>
		<path class="st0" d="M120,110.7V89.8h2.3c2.7,0,3.6,0.7,3.6,3.5h1l-0.2-5h-17.1l-0.2,4.7h1c0.2-2.5,1-3.2,3.6-3.2h2.3v21
			L120,110.7L120,110.7z"/>
		<path class="st0" d="M74.7,110.7V89.8h2.3c2.7,0,3.6,0.7,3.6,3.5h1l-0.2-5H64.2L64.1,93h1c0.2-2.5,1-3.2,3.6-3.2h2.3v21
			L74.7,110.7L74.7,110.7z"/>
	</g>
	<g>
		<polygon class="st0" points="151.6,19.5 39.1,19.5 39.1,146.3 57.4,146.3 57.4,137.4 89,137.4 87.6,130.7 151.6,130.7 		"/>
		<path class="st1" d="M43.1,39.2v-1.7h13.5l21.5,36.9h0.2V45.4c0-5.3-1-6.5-5.9-6.5v-1.5h16v1.7c-5,0-5.9,1-5.9,6.5v37.7h-6.5
			l-22.7-39h-0.2v30.6c0,5.3,1,6.5,5.9,6.5v1.7h-16v-1.7c4.7,0,5.9-1,5.9-6.5V45.4C48.8,40.1,47.8,39.2,43.1,39.2z"/>
		<path class="st1" d="M90.7,89v-0.7H97l8.2,22.4h-3.5l-2.5-7.1h-8.6l-2.5,7.1H86l6.7-18.3c0.2-0.6,0.6-1.7,0.6-1.9
			C93.2,89.3,92.1,89.3,90.7,89z"/>
		<path class="st1" d="M91.5,38.9v-1.7h15l13.3,37.6h0.2l13.3-37.6h15v1.7c-4.7,0-5.9,1-5.9,6.5v29.5c0,5.3,1,6.5,5.9,6.5v1.7h-18.7
			v-1.7c4.7,0,5.9-1,5.9-6.5V42.5h-0.2L121,82.9h-4.7l-14.5-40.4l0,0v32.4c0,5.3,1,6.5,5.9,6.5v1.7h-16v-1.7c5,0,5.9-1,5.9-6.5V45.4
			C97.4,40.1,96.4,38.9,91.5,38.9z"/>
		<path class="st1" d="M114.2,89.8c-2.7,0-3.5,0.7-3.6,3.2h-1l0.2-4.7h17.1l0.2,5h-1c0-2.7-1.1-3.5-3.6-3.5h-2.3v21h-3.6v-21H114.2z
			"/>
		<path class="st1" d="M68.7,89.8c-2.7,0-3.5,0.7-3.6,3.2h-1l0.2-4.7h17.1l0.2,5h-1c0-2.7-1.1-3.5-3.6-3.5h-2.3v21h-3.6v-21H68.7z"
			/>
		<path class="st1" d="M43.3,93.6c0-3.6,2.9-5.7,7.6-5.7c2.3,0,4.6,0.4,5.3,0.6v2.5c-1-0.4-3.5-1.5-5.9-1.5c-1.7,0-3.2,1-3.2,3.2
			c0,5.1,10.9,4.7,10.9,11.8c0,4.7-3.8,6.7-8.4,6.7c-2.7,0-5.1-0.7-5.9-1v-2.7c1,0.6,3.6,2.1,6.5,2.1c2.1,0,4.2-1,4.2-4
			C54.2,100.3,43.3,100.8,43.3,93.6z"/>
		<path class="st1" d="M148.4,110.7h-13.3V92.9c0-3.2-0.2-3.2-3.2-3.8v-0.7h16l0.2,5h-1c0-2.7-1.4-3.5-3.6-3.5h-2.7
			c-1.7,0-2.1,0.2-2.1,1.7v6.7h4c2.3,0,2.5-1.5,2.7-2.7h1v7.1h-0.7c0-1.7-0.7-2.9-2.7-2.9h-4v7.4c0,1.9,0.4,1.9,2.1,1.9h3.6
			c1.9,0,2.9-0.7,3.1-3.2h1L148.4,110.7z"/>
		<polygon class="st0" points="98.5,102.2 94.7,92.5 91.1,102.2 		"/>
	</g>
</g>
</svg>
